<?xml version="1.0" encoding="UTF-8" standalone="no"?>
<svg width="23px" height="23px" viewBox="0 0 23 23" version="1.1" xmlns="http://www.w3.org/2000/svg" xmlns:xlink="http://www.w3.org/1999/xlink">
    <!-- Generator: sketchtool 3.6.1 (26313) - http://www.bohemiancoding.com/sketch -->
    <title>CAF165F1-AB50-4578-9A04-C9189249E430</title>
    <desc>Created with sketchtool.</desc>
    <defs></defs>
    <g id="Page-1" stroke="none" stroke-width="1" fill="none" fill-rule="evenodd">
        <g id="02-Web-Collection-Homepage" transform="translate(-322.000000, -332.000000)" fill="#4990E2">
            <g id="Group-8" transform="translate(307.000000, 318.000000)">
                <g id="Group-6">
                    <path d="M37.2907375,34.1690123 L30.220825,27.1863827 C31.176475,25.8839012 31.748025,24.2880988 31.748025,22.5594074 C31.748025,22.4708148 31.7356625,22.3859136 31.721575,22.3015802 C31.73595,22.2161111 31.7483125,22.1297901 31.7483125,22.0397778 C31.7483125,17.6782963 28.155425,14.1297654 23.739425,14.1297654 C23.6609375,14.1297654 23.585325,14.1419753 23.5097125,14.1524815 C23.433525,14.1419753 23.3584875,14.1297654 23.28,14.1297654 C18.8637125,14.1297654 15.270825,17.6782963 15.270825,22.0397778 C15.270825,22.1283704 15.2829,22.2132716 15.297275,22.2978889 C15.2826125,22.383358 15.2705375,22.4693951 15.2705375,22.5594074 C15.2705375,26.9208889 18.8631375,30.4697037 23.279425,30.4697037 C23.3579125,30.4697037 23.4332375,30.4574938 23.509425,30.4467037 C23.5850375,30.4574938 23.660075,30.4697037 23.73885,30.4697037 C25.23615,30.4697037 26.6342625,30.054 27.8342875,29.3444074 L35.004825,36.4264198 C35.3207875,36.7384815 35.7342125,36.8940864 36.147925,36.8940864 C36.5616375,36.8940864 36.9756375,36.7381975 37.291025,36.4264198 C37.9220875,35.8031481 37.9220875,34.7925679 37.2907375,34.1690123 L37.2907375,34.1690123 Z M23.509425,27.299679 C23.4332375,27.2888889 23.3582,27.276679 23.279425,27.276679 C20.645925,27.276679 18.503475,25.160679 18.503475,22.5596914 C18.503475,22.4710988 18.4914,22.3861975 18.477025,22.3018642 C18.4916875,22.2163951 18.5037625,22.1300741 18.5037625,22.0400617 C18.5037625,19.4390741 20.6465,17.3230741 23.28,17.3230741 C23.3582,17.3230741 23.433525,17.3111481 23.5097125,17.300642 C23.585325,17.3111481 23.66065,17.3230741 23.739425,17.3230741 C26.372925,17.3230741 28.515375,19.4390741 28.515375,22.0400617 C28.515375,22.1286543 28.5277375,22.2135556 28.541825,22.2981728 C28.52745,22.383642 28.5148,22.469679 28.5148,22.5596914 C28.5148,25.160679 26.37235,27.276679 23.73885,27.276679 C23.660075,27.276679 23.58475,27.2888889 23.509425,27.299679 L23.509425,27.299679 Z" id="Search-blue"></path>
                </g>
            </g>
        </g>
    </g>
</svg>